<svg data-v-fde0c5aa="" xmlns="http://www.w3.org/2000/svg" viewBox="0 0 300 300" class="font"><!----><defs data-v-fde0c5aa=""><!----></defs><rect data-v-fde0c5aa="" fill="transparent" x="0" y="0" width="300px" height="300px" class="logo-background-square"></rect><defs data-v-fde0c5aa=""><linearGradient data-v-fde0c5aa="" gradientTransform="rotate(25)" id="ffab7211-25f0-48d4-b55c-67abc78ea213" x1="0%" y1="0%" x2="100%" y2="0%"><stop data-v-fde0c5aa="" offset="0%" stop-color="#288B58" stop-opacity="1"></stop><stop data-v-fde0c5aa="" offset="100%" stop-color="#1522F1" stop-opacity="1"></stop></linearGradient></defs><g data-v-fde0c5aa="" id="22e2c9b7-65eb-4b96-a75c-905d971616b1" fill="url(#ffab7211-25f0-48d4-b55c-67abc78ea213)" transform="matrix(2.7010433673858643,0,0,2.7010433673858643,38.973603508256744,128.24309560909404)"><path d="M0.38 3.64L4.40 3.64L4.40 3.64Q5.24 3.64 5.85 3.83L5.85 3.83L5.85 3.83Q6.46 4.01 6.86 4.35L6.86 4.35L6.86 4.35Q7.25 4.68 7.44 5.15L7.44 5.15L7.44 5.15Q7.64 5.62 7.64 6.18L7.64 6.18L7.64 6.18Q7.64 6.74 7.46 7.20L7.46 7.20L7.46 7.20Q7.28 7.66 6.89 7.99L6.89 7.99L6.89 7.99Q6.51 8.33 5.90 8.51L5.90 8.51L5.90 8.51Q5.28 8.70 4.42 8.70L4.42 8.70L2.83 8.70L2.83 11.26L2.83 11.26Q2.83 11.45 2.87 11.56L2.87 11.56L2.87 11.56Q2.91 11.66 3.01 11.71L3.01 11.71L3.01 11.71Q3.12 11.76 3.28 11.77L3.28 11.77L3.28 11.77Q3.45 11.79 3.69 11.79L3.69 11.79L4.04 11.79L4.04 12.46L4.04 12.46Q3.86 12.46 3.68 12.46L3.68 12.46L3.68 12.46Q3.51 12.46 3.33 12.46L3.33 12.46L3.33 12.46Q3.15 12.46 2.94 12.45L2.94 12.45L2.94 12.45Q2.73 12.45 2.47 12.45L2.47 12.45L2.47 12.45Q1.84 12.45 1.35 12.46L1.35 12.46L1.35 12.46Q0.85 12.46 0.38 12.46L0.38 12.46L0.38 11.79L0.73 11.79L0.73 11.79Q1.05 11.79 1.22 11.75L1.22 11.75L1.22 11.75Q1.39 11.71 1.47 11.64L1.47 11.64L1.47 11.64Q1.55 11.57 1.57 11.47L1.57 11.47L1.57 11.47Q1.58 11.37 1.58 11.23L1.58 11.23L1.58 4.76L1.58 4.76Q1.58 4.61 1.54 4.52L1.54 4.52L1.54 4.52Q1.50 4.43 1.37 4.39L1.37 4.39L1.37 4.39Q1.24 4.34 1.00 4.33L1.00 4.33L1.00 4.33Q0.77 4.32 0.38 4.32L0.38 4.32L0.38 3.64ZM2.83 4.37L2.83 7.99L4.14 7.99L4.14 7.99Q5.29 7.99 5.85 7.55L5.85 7.55L5.85 7.55Q6.41 7.11 6.41 6.20L6.41 6.20L6.41 6.20Q6.41 5.76 6.28 5.41L6.28 5.41L6.28 5.41Q6.16 5.07 5.89 4.84L5.89 4.84L5.89 4.84Q5.63 4.61 5.20 4.49L5.20 4.49L5.20 4.49Q4.78 4.37 4.17 4.37L4.17 4.37L2.83 4.37ZM13.60 8.37L13.60 10.93L13.60 10.93Q13.60 11.29 13.63 11.47L13.63 11.47L13.63 11.47Q13.65 11.66 13.72 11.75L13.72 11.75L13.72 11.75Q13.79 11.83 13.91 11.84L13.91 11.84L13.91 11.84Q14.04 11.85 14.25 11.85L14.25 11.85L14.55 11.85L14.55 12.46L14.55 12.46Q14.01 12.46 13.48 12.47L13.48 12.47L13.48 12.47Q12.95 12.48 12.50 12.49L12.50 12.49L12.50 11.55L12.50 11.55Q12.09 12.08 11.52 12.34L11.52 12.34L11.52 12.34Q10.96 12.61 10.21 12.61L10.21 12.61L10.21 12.61Q9.71 12.61 9.32 12.47L9.32 12.47L9.32 12.47Q8.92 12.33 8.64 12.08L8.64 12.08L8.64 12.08Q8.36 11.83 8.21 11.49L8.21 11.49L8.21 11.49Q8.05 11.15 8.05 10.74L8.05 10.74L8.05 10.74Q8.05 10.30 8.23 9.94L8.23 9.94L8.23 9.94Q8.41 9.58 8.75 9.33L8.75 9.33L8.75 9.33Q9.09 9.08 9.58 8.94L9.58 8.94L9.58 8.94Q10.07 8.80 10.70 8.80L10.70 8.80L10.70 8.80Q11.13 8.80 11.57 8.86L11.57 8.86L11.57 8.86Q12.00 8.93 12.46 9.04L12.46 9.04L12.46 8.06L12.46 8.06Q12.46 7.44 12.04 7.11L12.04 7.11L12.04 7.11Q11.63 6.78 10.77 6.78L10.77 6.78L10.77 6.78Q10.06 6.78 9.65 7.06L9.65 7.06L9.65 7.06Q9.24 7.33 9.11 7.92L9.11 7.92L8.48 7.84L8.57 6.64L8.57 6.64Q9.00 6.44 9.59 6.31L9.59 6.31L9.59 6.31Q10.17 6.19 10.90 6.19L10.90 6.19L10.90 6.19Q11.63 6.19 12.14 6.32L12.14 6.32L12.14 6.32Q12.65 6.45 12.98 6.71L12.98 6.71L12.98 6.71Q13.30 6.98 13.45 7.39L13.45 7.39L13.45 7.39Q13.60 7.81 13.60 8.37L13.60 8.37ZM10.96 9.37L10.96 9.37L10.96 9.37Q10.55 9.37 10.22 9.46L10.22 9.46L10.22 9.46Q9.89 9.56 9.66 9.73L9.66 9.73L9.66 9.73Q9.43 9.90 9.31 10.14L9.31 10.14L9.31 10.14Q9.19 10.39 9.19 10.71L9.19 10.71L9.19 10.71Q9.19 10.99 9.29 11.20L9.29 11.20L9.29 11.20Q9.39 11.42 9.57 11.57L9.57 11.57L9.57 11.57Q9.75 11.72 10.00 11.81L10.00 11.81L10.00 11.81Q10.25 11.89 10.55 11.89L10.55 11.89L10.55 11.89Q10.88 11.89 11.22 11.79L11.22 11.79L11.22 11.79Q11.56 11.68 11.83 11.49L11.83 11.49L11.83 11.49Q12.11 11.29 12.28 11.00L12.28 11.00L12.28 11.00Q12.46 10.70 12.46 10.28L12.46 10.28L12.46 9.61L12.46 9.61Q12.04 9.50 11.68 9.43L11.68 9.43L11.68 9.43Q11.31 9.37 10.96 9.37ZM16.21 4.79L17.08 4.61L17.08 6.34L18.72 6.34L18.72 6.95L17.08 6.95L17.08 10.38L17.08 10.38Q17.08 10.73 17.09 11.00L17.09 11.00L17.09 11.00Q17.10 11.28 17.15 11.48L17.15 11.48L17.15 11.48Q17.21 11.68 17.34 11.78L17.34 11.78L17.34 11.78Q17.47 11.89 17.72 11.89L17.72 11.89L17.72 11.89Q17.81 11.89 17.91 11.85L17.91 11.85L17.91 11.85Q18.01 11.81 18.08 11.72L18.08 11.72L18.08 11.72Q18.15 11.63 18.19 11.49L18.19 11.49L18.19 11.49Q18.24 11.35 18.24 11.15L18.24 11.15L18.86 11.09L18.86 11.09Q18.86 11.49 18.75 11.78L18.75 11.78L18.75 11.78Q18.63 12.07 18.45 12.25L18.45 12.25L18.45 12.25Q18.26 12.43 18.01 12.52L18.01 12.52L18.01 12.52Q17.75 12.61 17.47 12.61L17.47 12.61L17.47 12.61Q16.99 12.61 16.70 12.45L16.70 12.45L16.70 12.45Q16.40 12.29 16.23 12.01L16.23 12.01L16.23 12.01Q16.06 11.74 16.00 11.33L16.00 11.33L16.00 11.33Q15.94 10.93 15.94 10.44L15.94 10.44L15.94 6.95L14.82 6.95L14.82 6.41L14.82 6.41Q14.99 6.41 15.20 6.39L15.20 6.39L15.20 6.39Q15.42 6.37 15.61 6.36L15.61 6.36L15.61 6.36Q15.83 6.34 16.06 6.32L16.06 6.32L16.06 6.32Q16.06 6.27 16.08 6.14L16.08 6.14L16.08 6.14Q16.09 6.02 16.11 5.85L16.11 5.85L16.11 5.85Q16.12 5.68 16.14 5.50L16.14 5.50L16.14 5.50Q16.16 5.32 16.17 5.16L16.17 5.16L16.17 5.16Q16.19 5.01 16.20 4.90L16.20 4.90L16.20 4.90Q16.21 4.80 16.21 4.79L16.21 4.79ZM24.90 11.46L24.90 8.83L24.90 8.83Q24.90 8.33 24.85 7.96L24.85 7.96L24.85 7.96Q24.79 7.59 24.65 7.35L24.65 7.35L24.65 7.35Q24.51 7.12 24.27 7.01L24.27 7.01L24.27 7.01Q24.03 6.90 23.64 6.90L23.64 6.90L23.64 6.90Q23.27 6.90 22.95 7.01L22.95 7.01L22.95 7.01Q22.63 7.13 22.38 7.31L22.38 7.31L22.38 7.31Q22.13 7.49 21.95 7.69L21.95 7.69L21.95 7.69Q21.77 7.90 21.66 8.07L21.66 8.07L21.66 11.56L21.66 11.56Q21.66 11.67 21.70 11.73L21.70 11.73L21.70 11.73Q21.75 11.79 21.87 11.82L21.87 11.82L21.87 11.82Q21.98 11.85 22.19 11.85L22.19 11.85L22.19 11.85Q22.39 11.85 22.70 11.85L22.70 11.85L22.70 12.46L22.70 12.46Q22.50 12.46 22.31 12.46L22.31 12.46L22.31 12.46Q22.13 12.46 21.93 12.46L21.93 12.46L21.93 12.46Q21.73 12.46 21.51 12.46L21.51 12.46L21.51 12.46Q21.29 12.46 21.03 12.45L21.03 12.45L21.03 12.45Q20.79 12.45 20.59 12.45L20.59 12.45L20.59 12.45Q20.38 12.46 20.20 12.46L20.20 12.46L20.20 12.46Q20.01 12.46 19.83 12.46L19.83 12.46L19.83 12.46Q19.65 12.46 19.47 12.46L19.47 12.46L19.47 11.85L19.47 11.85Q19.85 11.85 20.06 11.84L20.06 11.84L20.06 11.84Q20.28 11.82 20.37 11.78L20.37 11.78L20.37 11.78Q20.47 11.74 20.49 11.68L20.49 11.68L20.49 11.68Q20.51 11.61 20.51 11.52L20.51 11.52L20.51 4.51L20.51 4.51Q20.51 4.41 20.44 4.35L20.44 4.35L20.44 4.35Q20.37 4.29 20.24 4.27L20.24 4.27L20.24 4.27Q20.10 4.25 19.92 4.24L19.92 4.24L19.92 4.24Q19.74 4.24 19.51 4.24L19.51 4.24L19.51 3.62L19.51 3.62Q19.63 3.62 19.77 3.63L19.77 3.63L19.77 3.63Q19.90 3.63 20.08 3.63L20.08 3.63L20.08 3.63Q20.45 3.63 20.84 3.62L20.84 3.62L20.84 3.62Q21.23 3.61 21.65 3.60L21.65 3.60L21.65 3.60Q21.65 3.99 21.65 4.45L21.65 4.45L21.65 4.45Q21.66 4.91 21.66 5.38L21.66 5.38L21.66 5.38Q21.66 5.86 21.66 6.32L21.66 6.32L21.66 6.32Q21.66 6.78 21.66 7.18L21.66 7.18L21.66 7.18Q22.15 6.67 22.75 6.43L22.75 6.43L22.75 6.43Q23.34 6.19 24.07 6.19L24.07 6.19L24.07 6.19Q24.71 6.19 25.09 6.38L25.09 6.38L25.09 6.38Q25.48 6.58 25.70 6.98L25.70 6.98L25.70 6.98Q25.91 7.37 25.98 7.96L25.98 7.96L25.98 7.96Q26.05 8.54 26.05 9.33L26.05 9.33L26.05 11.44L26.05 11.44Q26.05 11.60 26.10 11.68L26.10 11.68L26.10 11.68Q26.15 11.76 26.26 11.80L26.26 11.80L26.26 11.80Q26.37 11.84 26.56 11.85L26.56 11.85L26.56 11.85Q26.74 11.85 27.02 11.85L27.02 11.85L27.02 12.46L27.02 12.46Q26.84 12.46 26.66 12.46L26.66 12.46L26.66 12.46Q26.49 12.46 26.30 12.46L26.30 12.46L26.30 12.46Q26.12 12.46 25.91 12.46L25.91 12.46L25.91 12.46Q25.70 12.46 25.46 12.45L25.46 12.45L25.46 12.45Q24.96 12.45 24.60 12.46L24.60 12.46L24.60 12.46Q24.23 12.46 23.86 12.46L23.86 12.46L23.86 11.85L23.86 11.85Q24.17 11.85 24.36 11.83L24.36 11.83L24.36 11.83Q24.56 11.82 24.68 11.78L24.68 11.78L24.68 11.78Q24.80 11.74 24.85 11.67L24.85 11.67L24.85 11.67Q24.90 11.59 24.90 11.46L24.90 11.46ZM37.59 3.68L37.59 6.03L36.79 6.03L36.79 6.03Q36.78 5.95 36.78 5.89L36.78 5.89L36.78 5.89Q36.78 5.82 36.78 5.75L36.78 5.75L36.78 5.75Q36.76 5.39 36.61 5.11L36.61 5.11L36.61 5.11Q36.45 4.82 36.17 4.62L36.17 4.62L36.17 4.62Q35.88 4.42 35.49 4.31L35.49 4.31L35.49 4.31Q35.10 4.20 34.62 4.20L34.62 4.20L34.62 4.20Q34.19 4.20 33.85 4.31L33.85 4.31L33.85 4.31Q33.50 4.42 33.26 4.61L33.26 4.61L33.26 4.61Q33.02 4.80 32.90 5.06L32.90 5.06L32.90 5.06Q32.77 5.33 32.77 5.63L32.77 5.63L32.77 5.63Q32.77 5.96 32.90 6.20L32.90 6.20L32.90 6.20Q33.03 6.44 33.26 6.62L33.26 6.62L33.26 6.62Q33.48 6.81 33.79 6.95L33.79 6.95L33.79 6.95Q34.10 7.09 34.47 7.22L34.47 7.22L34.47 7.22Q34.83 7.34 35.23 7.47L35.23 7.47L35.23 7.47Q35.64 7.60 36.05 7.75L36.05 7.75L36.05 7.75Q36.47 7.92 36.82 8.12L36.82 8.12L36.82 8.12Q37.17 8.33 37.43 8.61L37.43 8.61L37.43 8.61Q37.68 8.89 37.82 9.25L37.82 9.25L37.82 9.25Q37.96 9.61 37.96 10.08L37.96 10.08L37.96 10.08Q37.96 10.62 37.75 11.08L37.75 11.08L37.75 11.08Q37.54 11.55 37.16 11.89L37.16 11.89L37.16 11.89Q36.78 12.24 36.25 12.43L36.25 12.43L36.25 12.43Q35.71 12.63 35.05 12.63L35.05 12.63L35.05 12.63Q34.13 12.63 33.47 12.37L33.47 12.37L33.47 12.37Q32.80 12.11 32.44 11.66L32.44 11.66L32.44 12.46L31.53 12.46L31.53 9.67L32.35 9.67L32.35 9.67Q32.35 10.17 32.48 10.57L32.48 10.57L32.48 10.57Q32.61 10.97 32.89 11.26L32.89 11.26L32.89 11.26Q33.17 11.55 33.62 11.70L33.62 11.70L33.62 11.70Q34.06 11.86 34.68 11.86L34.68 11.86L34.68 11.86Q35.13 11.86 35.51 11.74L35.51 11.74L35.51 11.74Q35.88 11.63 36.15 11.41L36.15 11.41L36.15 11.41Q36.42 11.20 36.57 10.89L36.57 10.89L36.57 10.89Q36.72 10.59 36.72 10.21L36.72 10.21L36.72 10.21Q36.72 9.72 36.46 9.41L36.46 9.41L36.46 9.41Q36.19 9.10 35.75 8.88L35.75 8.88L35.75 8.88Q35.31 8.66 34.76 8.49L34.76 8.49L34.76 8.49Q34.20 8.31 33.63 8.09L33.63 8.09L33.63 8.09Q33.12 7.90 32.74 7.68L32.74 7.68L32.74 7.68Q32.35 7.46 32.10 7.18L32.10 7.18L32.10 7.18Q31.84 6.91 31.71 6.57L31.71 6.57L31.71 6.57Q31.58 6.23 31.58 5.80L31.58 5.80L31.58 5.80Q31.58 5.31 31.77 4.89L31.77 4.89L31.77 4.89Q31.96 4.46 32.33 4.15L32.33 4.15L32.33 4.15Q32.69 3.84 33.21 3.66L33.21 3.66L33.21 3.66Q33.73 3.48 34.38 3.48L34.38 3.48L34.38 3.48Q34.72 3.48 35.03 3.51L35.03 3.51L35.03 3.51Q35.34 3.55 35.63 3.63L35.63 3.63L35.63 3.63Q35.92 3.72 36.20 3.87L36.20 3.87L36.20 3.87Q36.47 4.01 36.74 4.25L36.74 4.25L36.74 3.68L36.74 3.68Q36.91 3.68 37.14 3.68L37.14 3.68L37.14 3.68Q37.37 3.68 37.59 3.68L37.59 3.68ZM45.59 9.49L45.18 9.61L40.34 9.61L40.34 9.61Q40.35 10.16 40.51 10.58L40.51 10.58L40.51 10.58Q40.67 10.99 40.97 11.28L40.97 11.28L40.97 11.28Q41.28 11.57 41.70 11.73L41.70 11.73L41.70 11.73Q42.12 11.89 42.63 11.89L42.63 11.89L42.63 11.89Q43.35 11.89 43.87 11.59L43.87 11.59L43.87 11.59Q44.40 11.30 44.69 10.68L44.69 10.68L45.51 10.81L45.51 10.81Q45.20 11.68 44.41 12.14L44.41 12.14L44.41 12.14Q43.62 12.61 42.47 12.61L42.47 12.61L42.47 12.61Q41.70 12.61 41.08 12.37L41.08 12.37L41.08 12.37Q40.47 12.14 40.04 11.72L40.04 11.72L40.04 11.72Q39.61 11.29 39.39 10.72L39.39 10.72L39.39 10.72Q39.16 10.15 39.16 9.42L39.16 9.42L39.16 9.42Q39.16 8.68 39.40 8.09L39.40 8.09L39.40 8.09Q39.63 7.50 40.05 7.08L40.05 7.08L40.05 7.08Q40.48 6.65 41.07 6.42L41.07 6.42L41.07 6.42Q41.67 6.19 42.40 6.19L42.40 6.19L42.40 6.19Q43.14 6.19 43.73 6.41L43.73 6.41L43.73 6.41Q44.32 6.63 44.73 7.05L44.73 7.05L44.73 7.05Q45.14 7.48 45.36 8.09L45.36 8.09L45.36 8.09Q45.58 8.70 45.59 9.49L45.59 9.49ZM40.35 9.00L44.48 9.00L44.48 9.00Q44.40 7.96 43.87 7.43L43.87 7.43L43.87 7.43Q43.33 6.90 42.42 6.90L42.42 6.90L42.42 6.90Q41.99 6.90 41.63 7.04L41.63 7.04L41.63 7.04Q41.28 7.19 41.01 7.45L41.01 7.45L41.01 7.45Q40.74 7.72 40.57 8.10L40.57 8.10L40.57 8.10Q40.41 8.48 40.35 9.00L40.35 9.00ZM48.57 3.60L48.57 11.38L48.57 11.38Q48.57 11.55 48.63 11.64L48.63 11.64L48.63 11.64Q48.70 11.74 48.83 11.79L48.83 11.79L48.83 11.79Q48.97 11.83 49.16 11.84L49.16 11.84L49.16 11.84Q49.36 11.85 49.62 11.85L49.62 11.85L49.62 12.46L49.62 12.46Q49.43 12.46 49.25 12.46L49.25 12.46L49.25 12.46Q49.06 12.46 48.87 12.46L48.87 12.46L48.87 12.46Q48.67 12.46 48.46 12.46L48.46 12.46L48.46 12.46Q48.25 12.46 48.00 12.45L48.00 12.45L48.00 12.45Q47.75 12.45 47.54 12.45L47.54 12.45L47.54 12.45Q47.33 12.46 47.13 12.46L47.13 12.46L47.13 12.46Q46.94 12.46 46.76 12.46L46.76 12.46L46.76 12.46Q46.59 12.46 46.40 12.46L46.40 12.46L46.40 12.46Q46.40 12.41 46.40 12.33L46.40 12.33L46.40 12.33Q46.40 12.24 46.40 12.16L46.40 12.16L46.40 12.16Q46.40 12.07 46.40 11.99L46.40 11.99L46.40 11.99Q46.40 11.91 46.40 11.85L46.40 11.85L46.40 11.85Q46.79 11.85 46.99 11.82L46.99 11.82L46.99 11.82Q47.20 11.79 47.30 11.72L47.30 11.72L47.30 11.72Q47.39 11.65 47.41 11.55L47.41 11.55L47.41 11.55Q47.43 11.44 47.43 11.30L47.43 11.30L47.43 4.59L47.43 4.59Q47.43 4.46 47.36 4.40L47.36 4.40L47.36 4.40Q47.30 4.33 47.17 4.30L47.17 4.30L47.17 4.30Q47.04 4.27 46.85 4.26L46.85 4.26L46.85 4.26Q46.67 4.25 46.43 4.25L46.43 4.25L46.43 3.63L46.43 3.63Q46.97 3.63 47.48 3.62L47.48 3.62L47.48 3.62Q47.98 3.62 48.57 3.60L48.57 3.60ZM56.86 9.49L56.45 9.61L51.61 9.61L51.61 9.61Q51.62 10.16 51.78 10.58L51.78 10.58L51.78 10.58Q51.95 10.99 52.25 11.28L52.25 11.28L52.25 11.28Q52.55 11.57 52.97 11.73L52.97 11.73L52.97 11.73Q53.39 11.89 53.90 11.89L53.90 11.89L53.90 11.89Q54.62 11.89 55.15 11.59L55.15 11.59L55.15 11.59Q55.67 11.30 55.96 10.68L55.96 10.68L56.79 10.81L56.79 10.81Q56.47 11.68 55.68 12.14L55.68 12.14L55.68 12.14Q54.89 12.61 53.74 12.61L53.74 12.61L53.74 12.61Q52.97 12.61 52.36 12.37L52.36 12.37L52.36 12.37Q51.74 12.14 51.31 11.72L51.31 11.72L51.31 11.72Q50.89 11.29 50.66 10.72L50.66 10.72L50.66 10.72Q50.44 10.15 50.44 9.42L50.44 9.42L50.44 9.42Q50.44 8.68 50.67 8.09L50.67 8.09L50.67 8.09Q50.90 7.50 51.32 7.08L51.32 7.08L51.32 7.08Q51.75 6.65 52.35 6.42L52.35 6.42L52.35 6.42Q52.94 6.19 53.68 6.19L53.68 6.19L53.68 6.19Q54.41 6.19 55.00 6.41L55.00 6.41L55.00 6.41Q55.59 6.63 56 7.05L56 7.05L56 7.05Q56.41 7.48 56.63 8.09L56.63 8.09L56.63 8.09Q56.85 8.70 56.86 9.49L56.86 9.49ZM51.62 9.00L55.75 9.00L55.75 9.00Q55.67 7.96 55.14 7.43L55.14 7.43L55.14 7.43Q54.61 6.90 53.69 6.90L53.69 6.90L53.69 6.90Q53.26 6.90 52.90 7.04L52.90 7.04L52.90 7.04Q52.55 7.19 52.28 7.45L52.28 7.45L52.28 7.45Q52.01 7.72 51.85 8.10L51.85 8.10L51.85 8.10Q51.68 8.48 51.62 9.00L51.62 9.00ZM63.63 6.39L63.63 8.52L62.96 8.52L62.96 8.52Q62.92 7.70 62.47 7.30L62.47 7.30L62.47 7.30Q62.02 6.90 61.22 6.90L61.22 6.90L61.22 6.90Q60.73 6.90 60.35 7.07L60.35 7.07L60.35 7.07Q59.96 7.25 59.70 7.57L59.70 7.57L59.70 7.57Q59.44 7.89 59.30 8.35L59.30 8.35L59.30 8.35Q59.16 8.82 59.16 9.40L59.16 9.40L59.16 9.40Q59.16 9.99 59.30 10.43L59.30 10.43L59.30 10.43Q59.45 10.87 59.72 11.20L59.72 11.20L59.72 11.20Q59.99 11.53 60.37 11.71L60.37 11.71L60.37 11.71Q60.75 11.89 61.23 11.89L61.23 11.89L61.23 11.89Q61.91 11.89 62.37 11.55L62.37 11.55L62.37 11.55Q62.84 11.22 63.02 10.55L63.02 10.55L63.82 10.68L63.82 10.68Q63.71 11.16 63.48 11.52L63.48 11.52L63.48 11.52Q63.24 11.89 62.89 12.11L62.89 12.11L62.89 12.11Q62.54 12.34 62.09 12.47L62.09 12.47L62.09 12.47Q61.64 12.61 61.10 12.61L61.10 12.61L61.10 12.61Q60.38 12.61 59.80 12.38L59.80 12.38L59.80 12.38Q59.22 12.15 58.81 11.75L58.81 11.75L58.81 11.75Q58.40 11.35 58.17 10.76L58.17 10.76L58.17 10.76Q57.95 10.17 57.95 9.45L57.95 9.45L57.95 9.45Q57.95 8.76 58.17 8.17L58.17 8.17L58.17 8.17Q58.39 7.58 58.79 7.14L58.79 7.14L58.79 7.14Q59.19 6.71 59.74 6.45L59.74 6.45L59.74 6.45Q60.29 6.19 60.96 6.19L60.96 6.19L60.96 6.19Q61.23 6.19 61.50 6.22L61.50 6.22L61.50 6.22Q61.76 6.25 62.01 6.34L62.01 6.34L62.01 6.34Q62.25 6.42 62.46 6.56L62.46 6.56L62.46 6.56Q62.67 6.71 62.83 6.92L62.83 6.92L63 6.38L63 6.38Q63.03 6.38 63.12 6.38L63.12 6.38L63.12 6.38Q63.21 6.38 63.31 6.38L63.31 6.38L63.31 6.38Q63.42 6.38 63.51 6.39L63.51 6.39L63.51 6.39Q63.60 6.39 63.63 6.39L63.63 6.39ZM65.79 4.79L66.66 4.61L66.66 6.34L68.30 6.34L68.30 6.95L66.66 6.95L66.66 10.38L66.66 10.38Q66.66 10.73 66.67 11.00L66.67 11.00L66.67 11.00Q66.68 11.28 66.74 11.48L66.74 11.48L66.74 11.48Q66.79 11.68 66.92 11.78L66.92 11.78L66.92 11.78Q67.05 11.89 67.30 11.89L67.30 11.89L67.30 11.89Q67.40 11.89 67.49 11.85L67.49 11.85L67.49 11.85Q67.59 11.81 67.66 11.72L67.66 11.72L67.66 11.72Q67.73 11.63 67.77 11.49L67.77 11.49L67.77 11.49Q67.82 11.35 67.82 11.15L67.82 11.15L68.44 11.09L68.44 11.09Q68.44 11.49 68.33 11.78L68.33 11.78L68.33 11.78Q68.22 12.07 68.03 12.25L68.03 12.25L68.03 12.25Q67.84 12.43 67.59 12.52L67.59 12.52L67.59 12.52Q67.33 12.61 67.05 12.61L67.05 12.61L67.05 12.61Q66.58 12.61 66.28 12.45L66.28 12.45L66.28 12.45Q65.98 12.29 65.81 12.01L65.81 12.01L65.81 12.01Q65.65 11.74 65.58 11.33L65.58 11.33L65.58 11.33Q65.52 10.93 65.52 10.44L65.52 10.44L65.52 6.95L64.40 6.95L64.40 6.41L64.40 6.41Q64.57 6.41 64.78 6.39L64.78 6.39L64.78 6.39Q65.00 6.37 65.19 6.36L65.19 6.36L65.19 6.36Q65.41 6.34 65.64 6.32L65.64 6.32L65.64 6.32Q65.65 6.27 65.66 6.14L65.66 6.14L65.66 6.14Q65.67 6.02 65.69 5.85L65.69 5.85L65.69 5.85Q65.70 5.68 65.72 5.50L65.72 5.50L65.72 5.50Q65.74 5.32 65.75 5.16L65.75 5.16L65.75 5.16Q65.77 5.01 65.78 4.90L65.78 4.90L65.78 4.90Q65.79 4.80 65.79 4.79L65.79 4.79ZM72.59 6.19L72.59 6.19L72.59 6.19Q73.31 6.19 73.91 6.41L73.91 6.41L73.91 6.41Q74.51 6.64 74.95 7.06L74.95 7.06L74.95 7.06Q75.38 7.49 75.62 8.09L75.62 8.09L75.62 8.09Q75.86 8.69 75.86 9.41L75.86 9.41L75.86 9.41Q75.86 10.10 75.62 10.69L75.62 10.69L75.62 10.69Q75.38 11.29 74.95 11.72L74.95 11.72L74.95 11.72Q74.52 12.14 73.92 12.37L73.92 12.37L73.92 12.37Q73.32 12.61 72.59 12.61L72.59 12.61L72.59 12.61Q71.87 12.61 71.27 12.38L71.27 12.38L71.27 12.38Q70.67 12.15 70.24 11.72L70.24 11.72L70.24 11.72Q69.81 11.29 69.57 10.69L69.57 10.69L69.57 10.69Q69.34 10.10 69.34 9.41L69.34 9.41L69.34 9.41Q69.34 8.69 69.58 8.09L69.58 8.09L69.58 8.09Q69.82 7.49 70.25 7.06L70.25 7.06L70.25 7.06Q70.68 6.64 71.27 6.41L71.27 6.41L71.27 6.41Q71.87 6.19 72.59 6.19ZM72.59 6.90L72.59 6.90L72.59 6.90Q72.11 6.90 71.73 7.08L71.73 7.08L71.73 7.08Q71.35 7.25 71.08 7.57L71.08 7.57L71.08 7.57Q70.81 7.90 70.66 8.36L70.66 8.36L70.66 8.36Q70.52 8.83 70.52 9.40L70.52 9.40L70.52 9.40Q70.52 9.93 70.67 10.40L70.67 10.40L70.67 10.40Q70.81 10.87 71.08 11.20L71.08 11.20L71.08 11.20Q71.35 11.53 71.74 11.71L71.74 11.71L71.74 11.71Q72.12 11.89 72.59 11.89L72.59 11.89L72.59 11.89Q73.06 11.89 73.45 11.71L73.45 11.71L73.45 11.71Q73.83 11.53 74.10 11.20L74.10 11.20L74.10 11.20Q74.38 10.87 74.52 10.40L74.52 10.40L74.52 10.40Q74.67 9.93 74.67 9.40L74.67 9.40L74.67 9.40Q74.67 8.84 74.52 8.37L74.52 8.37L74.52 8.37Q74.38 7.90 74.10 7.57L74.10 7.57L74.10 7.57Q73.83 7.25 73.45 7.08L73.45 7.08L73.45 7.08Q73.06 6.90 72.59 6.90ZM81.83 6.23L81.83 7.63L81.42 7.63L81.42 7.63Q81.28 7.30 81.07 7.18L81.07 7.18L81.07 7.18Q80.87 7.06 80.51 7.06L80.51 7.06L80.51 7.06Q80.18 7.06 79.90 7.22L79.90 7.22L79.90 7.22Q79.62 7.38 79.41 7.67L79.41 7.67L79.41 7.67Q79.21 7.96 79.10 8.36L79.10 8.36L79.10 8.36Q78.98 8.77 78.98 9.27L78.98 9.27L78.98 9.27Q78.97 9.28 78.97 9.44L78.97 9.44L78.97 9.44Q78.97 9.60 78.97 9.84L78.97 9.84L78.97 9.84Q78.96 10.08 78.96 10.35L78.96 10.35L78.96 10.35Q78.96 10.63 78.96 10.88L78.96 10.88L78.96 10.88Q78.96 11.12 78.96 11.29L78.96 11.29L78.96 11.29Q78.96 11.46 78.96 11.47L78.96 11.47L78.96 11.47Q78.96 11.61 79.02 11.69L79.02 11.69L79.02 11.69Q79.08 11.77 79.21 11.81L79.21 11.81L79.21 11.81Q79.35 11.85 79.58 11.85L79.58 11.85L79.58 11.85Q79.80 11.85 80.13 11.85L80.13 11.85L80.13 12.46L80.13 12.46Q79.91 12.46 79.71 12.46L79.71 12.46L79.71 12.46Q79.51 12.46 79.29 12.46L79.29 12.46L79.29 12.46Q79.07 12.46 78.83 12.45L78.83 12.45L78.83 12.45Q78.59 12.45 78.29 12.45L78.29 12.45L78.29 12.45Q78.04 12.45 77.83 12.45L77.83 12.45L77.83 12.45Q77.63 12.46 77.45 12.46L77.45 12.46L77.45 12.46Q77.27 12.46 77.10 12.46L77.10 12.46L77.10 12.46Q76.92 12.46 76.74 12.46L76.74 12.46L76.74 11.85L76.74 11.85Q77.13 11.85 77.35 11.84L77.35 11.84L77.35 11.84Q77.56 11.82 77.66 11.77L77.66 11.77L77.66 11.77Q77.77 11.72 77.78 11.63L77.78 11.63L77.78 11.63Q77.80 11.55 77.80 11.41L77.80 11.41L77.80 7.27L77.80 7.27Q77.80 7.15 77.76 7.09L77.76 7.09L77.76 7.09Q77.72 7.02 77.61 6.99L77.61 6.99L77.61 6.99Q77.50 6.96 77.30 6.96L77.30 6.96L77.30 6.96Q77.10 6.95 76.77 6.95L76.77 6.95L76.77 6.34L76.77 6.34Q76.85 6.34 77.01 6.35L77.01 6.35L77.01 6.35Q77.17 6.35 77.33 6.35L77.33 6.35L77.73 6.35L77.73 6.35Q78.02 6.35 78.31 6.34L78.31 6.34L78.31 6.34Q78.60 6.32 78.91 6.32L78.91 6.32L78.91 7.56L78.91 7.56Q79.24 6.92 79.82 6.55L79.82 6.55L79.82 6.55Q80.40 6.19 81.20 6.19L81.20 6.19L81.20 6.19Q81.50 6.19 81.83 6.23L81.83 6.23Z"></path></g><!----><!----></svg>